<svg width="81" height="20" viewBox="0 0 81 20" fill="none" xmlns="http://www.w3.org/2000/svg">
<g clip-path="url(#clip0)">
<path d="M1.61489 7.89594L2.76218 12.2614C3.01285 13.2156 3.24424 14.1078 3.40814 14.9952H3.46117C3.65881 14.1269 3.94322 13.206 4.23246 12.2614L5.6497 7.89594H6.97536L8.3203 12.1898C8.64328 13.2204 8.89395 14.1269 9.09159 14.9952H9.15908C9.32648 14.0549 9.54697 13.1247 9.81949 12.2089L11.0584 7.91502H12.6202L9.81949 16.5028H8.37332L7.04767 12.4045C6.74397 11.4503 6.4933 10.5963 6.27638 9.58487H6.26674C6.04936 10.5393 5.77736 11.4807 5.45206 12.4045L4.0541 16.4885H2.60793L0 7.89594H1.61489Z" fill="#47585B"/>
<path d="M21.8709 12.1231C21.8709 15.3006 19.6486 16.6842 17.5324 16.6842C15.18 16.6842 13.3674 14.981 13.3674 12.2615C13.3674 9.39891 15.2716 7.70044 17.6722 7.70044C20.1837 7.70044 21.8709 9.49433 21.8709 12.1231ZM14.9823 12.209C14.9823 14.0936 16.0766 15.5105 17.6192 15.5105C19.1617 15.5105 20.256 14.1079 20.256 12.1709C20.256 10.7157 19.5233 8.86933 17.6577 8.86933C15.7922 8.86933 14.9823 10.5773 14.9823 12.209Z" fill="#47585B"/>
<path d="M23.8667 10.5771C23.8667 9.5657 23.8667 8.66875 23.7944 7.89585H25.1779L25.231 9.58001H25.3033C25.4527 9.05475 25.7664 8.58986 26.1995 8.25213C26.6325 7.91439 27.1626 7.72118 27.7135 7.70024C27.8646 7.69861 28.0153 7.71625 28.1619 7.75272V9.22696C27.9859 9.1903 27.8065 9.17271 27.6268 9.17447C26.5132 9.17447 25.7227 10.0094 25.5106 11.1783C25.4604 11.425 25.4329 11.6757 25.4286 11.9273V16.5075H23.8667V10.5771Z" fill="#47585B"/>
<path d="M29.8104 3.88354H31.3867V16.4885H29.8104V3.88354Z" fill="#47585B"/>
<path d="M41.5388 3.88354V14.27C41.5388 15.0334 41.5388 15.9017 41.6111 16.4885H40.1939L40.1264 14.9952H40.0878C39.8064 15.5281 39.378 15.971 38.8523 16.2725C38.3267 16.574 37.7254 16.7217 37.1183 16.6984C35.0214 16.6984 33.4065 14.9427 33.4065 12.333C33.4065 9.47038 35.1805 7.71465 37.2967 7.71465C37.8124 7.68155 38.3276 7.78578 38.7888 8.01652C39.25 8.24726 39.6403 8.59607 39.9191 9.02667H39.9528V3.88354H41.5388ZM39.9625 11.3931C39.9647 11.1716 39.9404 10.9506 39.8902 10.7347C39.777 10.2185 39.4875 9.7568 39.0703 9.42739C38.6532 9.09799 38.134 8.92106 37.6004 8.92648C35.9662 8.92648 34.9973 10.3578 34.9973 12.2662C34.9973 14.0028 35.8602 15.4437 37.5618 15.4437C38.105 15.442 38.6312 15.2558 39.0524 14.9163C39.4736 14.5767 39.7642 14.1044 39.8757 13.5782C39.9346 13.3506 39.9638 13.1165 39.9625 12.8816V11.3931Z" fill="#47585B"/>
<path d="M46.0654 5.83484V7.89591H48.3262V9.0648H46.0654V13.6974C46.0654 14.7661 46.3739 15.3673 47.2512 15.3673C47.5602 15.3798 47.8692 15.3444 48.1671 15.2623L48.2395 16.4312C47.7907 16.5952 47.3149 16.6745 46.8367 16.665C46.5204 16.6809 46.2043 16.6286 45.9105 16.5116C45.6166 16.3947 45.352 16.2158 45.135 15.9875C44.6867 15.5104 44.5228 14.7661 44.5228 13.7547V9.0648H43.1779V7.89591H44.5228V6.31671L46.0654 5.83484Z" fill="#FFBA08"/>
<path d="M50.1049 10.5771C50.1049 9.5657 50.1049 8.66875 50.0326 7.89585H51.4161L51.4691 9.58001H51.5414C51.6908 9.05475 52.0046 8.58986 52.4377 8.25213C52.8707 7.91439 53.4008 7.72118 53.9517 7.70024C54.1028 7.69861 54.2535 7.71625 54.4 7.75272V9.22695C54.2241 9.1903 54.0447 9.1727 53.865 9.17447C52.7514 9.17447 51.9367 10.0094 51.7487 11.1783C51.7029 11.419 51.6787 11.6633 51.6764 11.9083V16.4884H50.1145L50.1049 10.5771Z" fill="#FFBA08"/>
<path d="M57.8034 5.48178C57.8034 5.73864 57.7003 5.98499 57.5168 6.16662C57.3333 6.34825 57.0844 6.45029 56.8248 6.45029C56.5653 6.45029 56.3164 6.34825 56.1329 6.16662C55.9494 5.98499 55.8463 5.73864 55.8463 5.48178C55.8429 5.35245 55.8662 5.2238 55.9147 5.10365C55.9632 4.98351 56.0359 4.87438 56.1283 4.7829C56.2208 4.69142 56.331 4.61949 56.4524 4.5715C56.5738 4.52351 56.7038 4.50045 56.8345 4.50372C56.9636 4.50305 57.0915 4.52802 57.2106 4.57718C57.3297 4.62633 57.4377 4.69866 57.528 4.78987C57.6184 4.88108 57.6893 4.98932 57.7366 5.10818C57.7839 5.22703 57.8067 5.35408 57.8034 5.48178ZM56.0439 16.4885V7.90067H57.6251V16.4885H56.0439Z" fill="#FFBA08"/>
<path d="M60.2571 10.7013C60.2571 9.59922 60.2186 8.71182 60.1848 7.89598H61.6021L61.6695 9.37021H61.7033C62.0156 8.84062 62.4679 8.40531 63.0115 8.11109C63.5551 7.81687 64.1694 7.67487 64.7884 7.70037C66.8854 7.70037 68.4665 9.45609 68.4665 12.0658C68.4665 15.1574 66.5383 16.6841 64.5185 16.6841C63.9934 16.7071 63.4712 16.5947 63.0031 16.358C62.535 16.1214 62.1369 15.7685 61.8479 15.334H61.8093V20H60.2571V10.7013ZM61.8142 12.9914C61.8197 13.2062 61.8439 13.4201 61.8865 13.6307C62.0187 14.1529 62.3234 14.6163 62.7523 14.9474C63.1811 15.2785 63.7095 15.4582 64.2534 15.458C65.9213 15.458 66.8902 14.1078 66.8902 12.1183C66.8902 10.396 65.9743 8.92651 64.3064 8.92651C63.7493 8.94211 63.2132 9.14032 62.7822 9.49003C62.3512 9.83974 62.0497 10.3212 61.925 10.8588C61.8588 11.0659 61.8215 11.281 61.8142 11.4981V12.9914Z" fill="#FFBA08"/>
<path d="M-0.482043 15.3387C44.1082 19.4417 70.3321 7.89594 70.3321 7.89594C70.3321 7.89594 51.8934 20.8683 -1.16174 18.3539" fill="#F5F8FA"/>
<path d="M44.542 14.3128C60.7439 11.8557 69.6089 7.94348 69.6089 7.94348C69.6089 7.94348 60.4499 14.1458 45.2169 16.1162" stroke="#FFBA08" stroke-width="0.5" stroke-miterlimit="10"/>
<path d="M2.3717 15.6725C16.435 16.8073 30.5832 16.3511 44.542 14.3128" stroke="#47585B" stroke-width="0.5" stroke-miterlimit="10"/>
<path d="M76.8689 9.7948C76.6182 8.23945 76.3868 6.76999 76.141 5.2385L75.7457 5.55816C74.8655 6.32651 73.8532 6.93247 72.7569 7.34728C72.5846 7.42209 72.3961 7.45341 72.2085 7.43842C72.0209 7.42343 71.84 7.36261 71.682 7.2614C71.0023 6.83201 70.2985 6.43125 69.5995 6.02094C69.7042 5.86943 69.8509 5.75104 70.0219 5.67996C70.1929 5.60887 70.381 5.58812 70.5636 5.62018C71.1144 5.67825 71.668 5.70533 72.2219 5.70128C72.3958 5.69859 72.5644 5.64184 72.7039 5.53907C74.6322 3.91693 76.5604 2.28843 78.4886 0.653573C78.9896 0.21704 79.6386 -0.0163728 80.3059 -5.29999e-05C80.9037 -5.29999e-05 81.1544 0.391169 80.8989 0.954146C80.7577 1.23639 80.563 1.48909 80.3252 1.69842C79.7612 2.20892 79.1731 2.69079 78.585 3.17266C78.5087 3.22821 78.4458 3.29981 78.4008 3.3823C78.3558 3.4648 78.3298 3.55614 78.3247 3.64976C78.1994 5.26235 78.0451 6.87495 77.9198 8.48755C77.9187 8.65087 77.8773 8.81145 77.7991 8.95531C77.721 9.09916 77.6085 9.22194 77.4715 9.31293C77.2623 9.46307 77.0611 9.62391 76.8689 9.7948Z" fill="#47585B"/>
<path d="M71.5565 3.01512C72.0048 2.63344 72.3182 2.13726 73.0413 2.24699C73.7643 2.35673 74.4874 2.3615 75.2491 2.41398L75.4949 2.44738C74.9454 2.92447 74.444 3.32524 73.9379 3.74031C73.909 3.76106 73.8761 3.7756 73.8412 3.78299C73.8064 3.79039 73.7703 3.79048 73.7354 3.78325C73.0605 3.57333 72.3857 3.35863 71.7156 3.13917C71.6674 3.12486 71.6336 3.07715 71.5565 3.01512Z" fill="#47585B"/>
</g>
<defs>
<clipPath id="clip0">
<rect width="81" height="20" fill="white"/>
</clipPath>
</defs>
</svg>
